<?xml version="1.0" encoding="utf-8"?><svg xmlns="http://www.w3.org/2000/svg" xmlns:xlink="http://www.w3.org/1999/xlink"><symbol class="asvg-inline--fa afa-arrows-alt-h afa-w-16" viewBox="0 0 512 512" id="arrows-reverse" xmlns="http://www.w3.org/2000/svg"><path d="M377.941 169.941V216H134.059v-46.059c0-21.382-25.851-32.09-40.971-16.971L7.029 239.029c-9.373 9.373-9.373 24.568 0 33.941l86.059 86.059c15.119 15.119 40.971 4.411 40.971-16.971V296h243.882v46.059c0 21.382 25.851 32.09 40.971 16.971l86.059-86.059c9.373-9.373 9.373-24.568 0-33.941l-86.059-86.059c-15.119-15.12-40.971-4.412-40.971 16.97z"/></symbol><symbol class="bsvg-inline--fa bfa-clock bfa-w-16" viewBox="0 0 512 512" id="clock" xmlns="http://www.w3.org/2000/svg"><path d="M256 8C119 8 8 119 8 256s111 248 248 248 248-111 248-248S393 8 256 8zm0 448c-110.5 0-200-89.5-200-200S145.5 56 256 56s200 89.5 200 200-89.5 200-200 200zm61.8-104.4l-84.9-61.7c-3.1-2.3-4.9-5.9-4.9-9.7V116c0-6.6 5.4-12 12-12h32c6.6 0 12 5.4 12 12v141.7l66.8 48.6c5.4 3.9 6.5 11.4 2.6 16.8L334.6 349c-3.9 5.3-11.4 6.5-16.8 2.6z"/></symbol><symbol class="csvg-inline--fa cfa-credit-card cfa-w-18" viewBox="0 0 576 512" id="credit-card" xmlns="http://www.w3.org/2000/svg"><path d="M527.9 32H48.1C21.5 32 0 53.5 0 80v352c0 26.5 21.5 48 48.1 48h479.8c26.6 0 48.1-21.5 48.1-48V80c0-26.5-21.5-48-48.1-48zM54.1 80h467.8c3.3 0 6 2.7 6 6v42H48.1V86c0-3.3 2.7-6 6-6zm467.8 352H54.1c-3.3 0-6-2.7-6-6V256h479.8v170c0 3.3-2.7 6-6 6zM192 332v40c0 6.6-5.4 12-12 12h-72c-6.6 0-12-5.4-12-12v-40c0-6.6 5.4-12 12-12h72c6.6 0 12 5.4 12 12zm192 0v40c0 6.6-5.4 12-12 12H236c-6.6 0-12-5.4-12-12v-40c0-6.6 5.4-12 12-12h136c6.6 0 12 5.4 12 12z"/></symbol><symbol viewBox="0 0 1000 1000" id="modal-arrow" xmlns="http://www.w3.org/2000/svg"><path d="M767.9 499.9L291.6 10l-59.4 61.3L648.8 500 232.1 928.7l59.5 61.3 476.3-490.1z"/></symbol><symbol viewBox="0 0 512 512" id="shopping-cart" xmlns="http://www.w3.org/2000/svg"><path d="M402.351 381.058h-203.32l-11.806-47.224h266.587L512 101.085H129.038L108.882 20.46H0v33.4h82.804l82.208 328.827c-24.053 5.971-41.938 27.737-41.938 53.611 0 30.461 24.781 55.242 55.241 55.242 30.459 0 55.241-24.781 55.241-55.242a54.903 54.903 0 00-4.511-21.841h122.577a54.92 54.92 0 00-4.511 21.841c0 30.461 24.781 55.242 55.241 55.242 30.459 0 55.241-24.781 55.241-55.242-.001-30.458-24.782-55.24-55.242-55.24zm-115.322-80.624h-37.08l-8.284-66.275h45.365v66.275zm124.883-165.95h57.31l-16.568 66.275h-49.026l8.284-66.275zm-12.459 99.676h44.85l-16.568 66.275h-36.566l8.284-66.275zm-79.025-99.676h57.824l-8.284 66.275h-49.539v-66.275zm0 99.675h45.365l-8.284 66.275h-37.08v-66.275zm-33.399-99.675v66.275H237.49l-8.284-66.275h57.823zm-149.641 0h58.158l8.284 66.275h-49.873l-16.569-66.275zm24.919 99.675h45.699l8.284 66.275h-37.414l-16.569-66.275zm16.008 223.982c-12.043 0-21.841-9.798-21.841-21.842 0-12.043 9.798-21.841 21.841-21.841s21.841 9.798 21.841 21.841c0 12.044-9.798 21.842-21.841 21.842zm224.036 0c-12.043 0-21.841-9.798-21.841-21.842 0-12.043 9.798-21.841 21.841-21.841 12.043 0 21.841 9.798 21.841 21.841 0 12.044-9.798 21.842-21.841 21.842z"/></symbol><symbol class="fsvg-inline--fa ffa-truck ffa-w-20" viewBox="0 0 640 512" id="truck" xmlns="http://www.w3.org/2000/svg"><path d="M624 352h-16V243.9c0-12.7-5.1-24.9-14.1-33.9L494 110.1c-9-9-21.2-14.1-33.9-14.1H416V48c0-26.5-21.5-48-48-48H48C21.5 0 0 21.5 0 48v320c0 26.5 21.5 48 48 48h16c0 53 43 96 96 96s96-43 96-96h128c0 53 43 96 96 96s96-43 96-96h48c8.8 0 16-7.2 16-16v-32c0-8.8-7.2-16-16-16zM160 464c-26.5 0-48-21.5-48-48s21.5-48 48-48 48 21.5 48 48-21.5 48-48 48zm320 0c-26.5 0-48-21.5-48-48s21.5-48 48-48 48 21.5 48 48-21.5 48-48 48zm80-208H416V144h44.1l99.9 99.9V256z"/></symbol></svg>